<?xml version="1.0" encoding="utf-8"?>
<!-- Generator: Adobe Illustrator 27.9.0, SVG Export Plug-In . SVG Version: 6.00 Build 0)  -->
<svg version="1.1" id="Layer_1" xmlns="http://www.w3.org/2000/svg" xmlns:xlink="http://www.w3.org/1999/xlink" x="0px" y="0px"
	 viewBox="0 0 60 40" style="enable-background:new 0 0 60 40;" xml:space="preserve">
<style type="text/css">
	.st0{fill:#FF1D25;}
	.st1{font-family:'ComicSansMS-Bold';}
	.st2{font-size:23.0607px;}
</style>
<g>
	<g>
		<g>
			<rect width="5.3" height="27.9"/>
		</g>
		<rect width="15.4" height="4.7"/>
		<rect x="1.9" y="10.9" width="10.4" height="4.7"/>
	</g>
	<g>
		<g>
			<polygon points="13.1,7.8 17.8,6.6 24.7,26.6 20,27.9 			"/>
			<polygon points="20.5,26.4 24,18.5 28.4,20 24.9,27.9 			"/>
			<rect x="20" y="25.8" width="4.9" height="2"/>
		</g>
		<g>
			<polygon points="33.8,27.9 29,26.6 36,6.6 40.7,7.8 			"/>
			<polygon points="28.9,27.9 25.3,20 29.7,18.5 33.3,26.4 			"/>
			<rect x="28.9" y="25.8" width="4.9" height="2"/>
		</g>
		<rect x="24" y="18.5" width="5.7" height="1.8"/>
	</g>
	<g>
		<g>
			<rect x="42" width="5.3" height="27.9"/>
		</g>
		<path d="M60,13.9C60,6.4,54.3,0.2,47.3,0v5.4c4.2,0.2,7.6,3.9,7.6,8.5s-3.4,8.3-7.6,8.5v5.4C54.3,27.6,60,21.5,60,13.9z"/>
	</g>
</g>
<text transform="matrix(1.1605 0 0 1 22.958 38.0072)" class="st0 st1 st2">35</text>
</svg>
